<?xml version="1.0" standalone="no"?>
<!DOCTYPE svg PUBLIC "-//W3C//DTD SVG 20010904//EN"
 "http://www.w3.org/TR/2001/REC-SVG-20010904/DTD/svg10.dtd">
<svg version="1.0" xmlns="http://www.w3.org/2000/svg"
 width="512.000000pt" height="512.000000pt" viewBox="0 0 512.000000 512.000000"
 preserveAspectRatio="xMidYMid meet">
<metadata>
Created by potrace 1.16, written by Peter Selinger 2001-2019
</metadata>
<g transform="translate(0.000000,512.000000) scale(0.100000,-0.100000)"
fill="#000000" stroke="none">
<path d="M2240 4771 c-16 -16 -31 -39 -34 -52 -5 -22 -36 -425 -36 -460 0 -11
-23 -22 -82 -38 -111 -31 -213 -72 -337 -137 -103 -53 -105 -54 -125 -36 -53
47 -304 260 -330 280 -20 15 -43 22 -75 22 l-45 0 -203 -203 -203 -203 0 -45
c0 -32 7 -55 22 -75 20 -26 233 -277 280 -330 18 -20 17 -23 -42 -136 -61
-117 -117 -261 -140 -355 -10 -43 -16 -53 -33 -53 -65 0 -428 -32 -459 -40
-20 -6 -46 -22 -57 -37 -20 -25 -21 -38 -21 -313 0 -275 1 -288 21 -313 11
-15 37 -31 57 -37 31 -8 394 -40 459 -40 17 0 24 -12 37 -67 25 -97 79 -233
142 -352 53 -103 54 -105 36 -125 -47 -53 -260 -304 -280 -330 -15 -20 -22
-43 -22 -75 l0 -45 203 -203 203 -203 45 0 c32 0 55 7 75 22 26 20 277 233
330 280 20 18 23 17 135 -41 120 -63 229 -106 342 -136 47 -13 67 -23 67 -34
0 -35 31 -437 36 -460 3 -13 18 -36 34 -52 l28 -29 290 0 c277 0 290 1 315 21
15 11 31 37 37 57 8 31 40 394 40 459 0 14 9 23 28 27 15 4 71 21 125 38 l97
31 0 448 0 448 -77 -56 c-170 -123 -356 -184 -558 -184 -276 0 -509 100 -698
300 -175 186 -257 394 -257 651 0 258 82 465 258 651 186 198 420 300 688 300
96 0 228 -18 280 -38 20 -7 19 -2 -21 98 -62 153 -77 227 -82 404 -8 240 25
385 135 598 53 103 55 109 43 147 -6 21 -23 48 -38 59 -25 20 -38 21 -315 21
l-290 0 -28 -29z"/>
<path d="M3414 4741 c-93 -65 -203 -183 -257 -276 -25 -41 -59 -119 -77 -173
-30 -87 -34 -112 -38 -239 -4 -122 -1 -156 17 -237 52 -225 196 -428 390 -547
l71 -44 2 -1310 3 -1310 29 -60 c38 -77 114 -153 191 -191 56 -27 68 -29 175
-29 107 0 119 2 175 29 77 38 153 114 191 191 l29 60 3 1310 2 1311 56 33
c200 119 352 328 404 555 19 83 22 116 18 239 -4 127 -8 152 -38 239 -42 127
-104 232 -193 325 -77 81 -198 173 -229 173 -17 0 -18 -20 -18 -472 l0 -473
-200 -79 -200 -79 -200 79 -200 79 0 473 c0 545 10 505 -106 423z"/>
</g>
</svg>
